<svg width="211" height="209" viewBox="0 0 211 209" fill="none" xmlns="http://www.w3.org/2000/svg">
<ellipse cx="105.5" cy="104.5" rx="105.5" ry="104.5" fill="#D9D9D9"/>
<g filter="url(#filter0_d_20_11)">
<path d="M100.757 138.243C103.101 140.586 106.899 140.586 109.243 138.243L147.426 100.059C149.77 97.7157 149.77 93.9167 147.426 91.5736C145.083 89.2304 141.284 89.2304 138.941 91.5736L105 125.515L71.0589 91.5736C68.7157 89.2304 64.9167 89.2304 62.5736 91.5736C60.2304 93.9167 60.2304 97.7157 62.5736 100.059L100.757 138.243ZM99 32L99 134L111 134L111 32L99 32Z" fill="white"/>
</g>
<g filter="url(#filter1_d_20_11)">
<line x1="64.5" y1="141" x2="64.5" y2="163" stroke="white" stroke-width="5"/>
<line x1="144.402" y1="141" x2="144.402" y2="163" stroke="white" stroke-width="5"/>
<line x1="62" y1="160.5" x2="146" y2="160.5" stroke="white" stroke-width="5"/>
</g>
<defs>
<filter id="filter0_d_20_11" x="56.8162" y="32" width="96.3675" height="116" filterUnits="userSpaceOnUse" color-interpolation-filters="sRGB">
<feFlood flood-opacity="0" result="BackgroundImageFix"/>
<feColorMatrix in="SourceAlpha" type="matrix" values="0 0 0 0 0 0 0 0 0 0 0 0 0 0 0 0 0 0 127 0" result="hardAlpha"/>
<feOffset dy="4"/>
<feGaussianBlur stdDeviation="2"/>
<feComposite in2="hardAlpha" operator="out"/>
<feColorMatrix type="matrix" values="0 0 0 0 0 0 0 0 0 0 0 0 0 0 0 0 0 0 0.25 0"/>
<feBlend mode="normal" in2="BackgroundImageFix" result="effect1_dropShadow_20_11"/>
<feBlend mode="normal" in="SourceGraphic" in2="effect1_dropShadow_20_11" result="shape"/>
</filter>
<filter id="filter1_d_20_11" x="58" y="141" width="92.9024" height="30" filterUnits="userSpaceOnUse" color-interpolation-filters="sRGB">
<feFlood flood-opacity="0" result="BackgroundImageFix"/>
<feColorMatrix in="SourceAlpha" type="matrix" values="0 0 0 0 0 0 0 0 0 0 0 0 0 0 0 0 0 0 127 0" result="hardAlpha"/>
<feOffset dy="4"/>
<feGaussianBlur stdDeviation="2"/>
<feComposite in2="hardAlpha" operator="out"/>
<feColorMatrix type="matrix" values="0 0 0 0 0 0 0 0 0 0 0 0 0 0 0 0 0 0 0.25 0"/>
<feBlend mode="normal" in2="BackgroundImageFix" result="effect1_dropShadow_20_11"/>
<feBlend mode="normal" in="SourceGraphic" in2="effect1_dropShadow_20_11" result="shape"/>
</filter>
</defs>
</svg>
